<svg width="20" height="28" viewBox="0 0 20 28" fill="none" xmlns="http://www.w3.org/2000/svg">
<g id="Just Logo">
<path id="Path" d="M5.39401 4.11906L6.93785 4.59763C6.8313 5.04718 6.66367 5.42259 6.43521 5.72434C6.20663 6.02622 5.92277 6.25395 5.58389 6.40743C5.24489 6.56115 4.81336 6.63795 4.28943 6.63795C3.65375 6.63795 3.13454 6.54591 2.73168 6.36244C2.3287 6.17861 1.98122 5.85557 1.68866 5.39284C1.39634 4.93047 1.25 4.33857 1.25 3.61751C1.25 2.65576 1.50592 1.91668 2.01823 1.39989C2.53019 0.883214 3.255 0.625 4.19183 0.625C4.92559 0.625 5.50225 0.775817 5.92169 1.07757C6.341 1.3792 6.65279 1.84242 6.8567 2.46721L5.23158 2.81879C5.17655 2.6427 5.1191 2.51402 5.05887 2.43286C4.95897 2.29583 4.83706 2.19025 4.69266 2.11672C4.54837 2.04306 4.38727 2.00642 4.20949 2.00642C3.8059 2.00642 3.4964 2.16667 3.28149 2.48741C3.11894 2.72555 3.03767 3.09902 3.03767 3.60868C3.03767 4.23928 3.13865 4.67141 3.34123 4.90555C3.54345 5.1397 3.82731 5.25653 4.19304 5.25653C4.54849 5.25653 4.81711 5.15941 4.99852 4.9653C5.18006 4.77106 5.31201 4.4889 5.39401 4.11906Z" fill="white"/>
<path id="Path_2" d="M7.42529 4.63077L9.21284 4.52531C9.24767 4.79973 9.31842 5.00836 9.42497 5.15156C9.59853 5.38401 9.84634 5.50048 10.1689 5.50048C10.4095 5.50048 10.5945 5.43964 10.7244 5.31834C10.8542 5.19691 10.9192 5.05601 10.9192 4.89612C10.9192 4.7447 10.8618 4.60888 10.7465 4.48879C10.6305 4.36857 10.3331 4.25488 9.85384 4.14845C9.0694 3.96982 8.50991 3.73434 8.17563 3.44129C7.83783 3.14837 7.66912 2.77538 7.66912 2.32257C7.66912 2.02372 7.75607 1.74216 7.92939 1.47729C8.10294 1.21243 8.36394 1.00404 8.71201 0.852377C9.06033 0.701077 9.53818 0.625366 10.1451 0.625366C10.889 0.625366 11.4562 0.76554 11.8467 1.04613C12.2375 1.32684 12.47 1.77348 12.5446 2.3863L10.7569 2.49419C10.7181 2.21069 10.6365 2.00424 10.5126 1.87532C10.3887 1.74603 10.2173 1.68157 9.99885 1.68157C9.81937 1.68157 9.68415 1.72619 9.59333 1.81557C9.50226 1.90507 9.45678 2.01343 9.45678 2.14115C9.45678 2.2344 9.47795 2.31858 9.52028 2.3938C9.56091 2.47096 9.73931 2.54268 10.0558 2.60969C10.8381 2.77997 11.3985 2.95171 11.7371 3.12587C12.0756 3.29979 12.3217 3.51567 12.4759 3.7734C12.6299 4.03126 12.7068 4.31959 12.7068 4.63851C12.7068 5.01283 12.6036 5.35776 12.3969 5.67391C12.1905 5.99006 11.9019 6.23001 11.5313 6.39328C11.1605 6.5568 10.6932 6.63831 10.1293 6.63831C9.13918 6.63831 8.45331 6.44928 8.0721 6.07133C7.69088 5.69326 7.47536 5.21312 7.42529 4.63077Z" fill="white"/>
<path id="Path_3" d="M13.2759 4.63077L15.0633 4.52531C15.098 4.79973 15.1686 5.00836 15.2753 5.15156C15.4489 5.38401 15.6968 5.50048 16.0191 5.50048C16.2596 5.50048 16.4448 5.43964 16.5749 5.31834C16.7046 5.19691 16.7699 5.05601 16.7699 4.89612C16.7699 4.7447 16.7121 4.60888 16.5971 4.48879C16.4811 4.36857 16.1834 4.25488 15.7045 4.14845C14.9197 3.96982 14.3603 3.73434 14.0258 3.44129C13.6882 3.14837 13.5193 2.77538 13.5193 2.32257C13.5193 2.02372 13.6062 1.74216 13.7797 1.47729C13.953 1.21243 14.2143 1.00404 14.5626 0.852377C14.9107 0.701077 15.3884 0.625366 15.9953 0.625366C16.7392 0.625366 17.3066 0.76554 17.6972 1.04613C18.0877 1.32684 18.3202 1.77348 18.3949 2.3863L16.6073 2.49419C16.5683 2.21069 16.4868 2.00424 16.3628 1.87532C16.2388 1.74603 16.0679 1.68157 15.8492 1.68157C15.67 1.68157 15.5345 1.72619 15.4435 1.81557C15.3527 1.90507 15.3071 2.01343 15.3071 2.14115C15.3071 2.2344 15.3283 2.31858 15.3704 2.3938C15.4111 2.47096 15.5899 2.54268 15.9065 2.60969C16.6887 2.77997 17.2489 2.95171 17.5875 3.12587C17.9259 3.29979 18.1719 3.51567 18.3264 3.7734C18.4802 4.03126 18.5572 4.31959 18.5572 4.63851C18.5572 5.01283 18.454 5.35776 18.2475 5.67391C18.0408 5.99006 17.7522 6.23001 17.3815 6.39328C17.0109 6.5568 16.5435 6.63831 15.9797 6.63831C14.9894 6.63831 14.304 6.44928 13.9223 6.07133C13.5411 5.69326 13.3258 5.21312 13.2759 4.63077Z" fill="white"/>
<path id="Path_4" d="M3.41537 10.625L2.78586 13.7546H15.5978L15.1979 15.7762H2.37745L1.75645 18.9058H14.5684L13.8538 22.4756L8.68984 24.1757L4.21509 22.4756L4.52137 20.9276H1.37373L0.625 24.6832L8.02636 27.5L16.5592 24.6832L17.6906 19.0328L17.9203 17.8995L19.375 10.625H3.41537Z" fill="white"/>
</g>
</svg>
